<svg id="_activeState.name_Hover-Zustand_" data-name="{activeState.name} (Hover-Zustand)" xmlns="http://www.w3.org/2000/svg" width="262.228" height="138.614" viewBox="0 0 262.228 138.614">
  <g id="INDEX" transform="translate(262.228 0) rotate(90)">
    <path id="Pfad_1" data-name="Pfad 1" d="M104.874,76.182l-85.2,42.555A13.378,13.378,0,0,1,1.621,113.49,14.306,14.306,0,0,1,0,106.961V11.709c0,9.444,5.325,15.273,19.331,21.8Z" transform="translate(0 141.707)" fill="#f86323" opacity="0.4"/>
    <path id="Pfad_2" data-name="Pfad 2" d="M95.9,0c23.459,0,42.485,13.977,42.715,49.736h0V248.681a19.712,19.712,0,0,1-1.07,6.406c-1.114,3.216-3.037,5.6-5.328,6.613a6.219,6.219,0,0,1-6.822-1.255h0L69.231,217.931,12.761,175.3C3.515,168.778,0,162.954,0,153.519H0V49.736C0,13.977,19.027,0,42.409,0H95.9Zm5.883,79.205H36.6c-3.756,0-6.8,4.641-6.8,10.367s3.045,10.367,6.8,10.367h65.18c3.756,0,6.8-4.641,6.8-10.367s-3.044-10.367-6.8-10.367Z" transform="translate(0)" fill="#f87f4a"/>
    <text id="INDEX-2" data-name="INDEX" transform="translate(97.752 208) rotate(-90)" fill="#fff" font-size="25" font-family="Provicali" letter-spacing="0.09em"><tspan x="0" y="23">INDEX</tspan></text>
  </g>
</svg>
