<svg xmlns="http://www.w3.org/2000/svg" width="27.501" height="35.282" viewBox="0 0 27.501 35.282">
  <path id="Pfad_68" data-name="Pfad 68" d="M17.751,21.405a2.563,2.563,0,0,0-2.421,1.688,2.675,2.675,0,0,0,.7,2.916v2.452a1.719,1.719,0,1,0,3.438,0V26.009a2.675,2.675,0,0,0,.7-2.916,2.563,2.563,0,0,0-2.421-1.688Zm8.594-7.056V10.821A8.71,8.71,0,0,0,17.751,2a8.71,8.71,0,0,0-8.594,8.821v3.528A5.226,5.226,0,0,0,4,19.641V31.99a5.226,5.226,0,0,0,5.157,5.292H26.345A5.226,5.226,0,0,0,31.5,31.99V19.641A5.226,5.226,0,0,0,26.345,14.349ZM12.594,10.821a5.158,5.158,0,1,1,10.313,0v3.528H12.594ZM28.064,31.99a1.742,1.742,0,0,1-1.719,1.764H9.157A1.742,1.742,0,0,1,7.438,31.99V19.641a1.742,1.742,0,0,1,1.719-1.764H26.345a1.742,1.742,0,0,1,1.719,1.764Z" transform="translate(-4 -2)" fill="#fff"/>
</svg>
