<svg xmlns="http://www.w3.org/2000/svg" width="31.392" height="31.392" viewBox="0 0 31.392 31.392">
  <path id="Pfad_70" data-name="Pfad 70" d="M135.848,156.776h15.7v-7.848h-15.7Zm18.312,0h2.616V138.464a2.258,2.258,0,0,0-.2-.787,2.2,2.2,0,0,0-.409-.705l-5.743-5.743a2.911,2.911,0,0,0-1.492-.613v8.5a1.954,1.954,0,0,1-1.962,1.962H135.194a1.954,1.954,0,0,1-1.962-1.962v-8.5h-2.616v26.16h2.616v-8.5a1.954,1.954,0,0,1,1.962-1.962h17a1.954,1.954,0,0,1,1.962,1.962Zm-7.848-18.966v-6.54a.663.663,0,0,0-.654-.654h-3.924a.663.663,0,0,0-.654.654v6.54a.663.663,0,0,0,.654.654h3.924a.663.663,0,0,0,.654-.654Zm13.08.654V157.43a1.954,1.954,0,0,1-1.962,1.962H129.962A1.954,1.954,0,0,1,128,157.43V129.962A1.954,1.954,0,0,1,129.962,128h18.966a5.443,5.443,0,0,1,3.352,1.39L158,135.112a5.443,5.443,0,0,1,1.39,3.352Z" transform="translate(-128 -128)" fill="#fff"/>
</svg>
