<svg xmlns="http://www.w3.org/2000/svg" width="86" height="91" viewBox="0 0 86 91">
  <path id="XMLID_1348_" d="M78.4,30.4,75.3,88.2a4.043,4.043,0,0,1-4,3.8H20.7a4.043,4.043,0,0,1-4-3.8L13.6,30.4a4,4,0,1,1,8-.4l2.9,54H67.6l2.9-54a3.955,3.955,0,1,1,7.9.4ZM89,17a4.012,4.012,0,0,1-4,4H7a4,4,0,0,1,0-8H29V4a2.891,2.891,0,0,1,3.2-3H59.8A2.891,2.891,0,0,1,63,4v9H85A4.012,4.012,0,0,1,89,17ZM36,13H56V8H36Zm1.7,65a3.743,3.743,0,0,0,3.5-3.8L40.2,31a3.565,3.565,0,0,0-3.6-3.5,3.421,3.421,0,0,0-3.4,3.6l1,43.3A3.631,3.631,0,0,0,37.7,78Zm16.5,0a3.543,3.543,0,0,0,3.5-3.5l1-43.2a3.5,3.5,0,0,0-7-.2l-1,43.2A3.525,3.525,0,0,0,54.2,78Z" transform="translate(-3 -1)" fill="#fff"/>
</svg>
