<svg xmlns="http://www.w3.org/2000/svg" width="27.5" height="34.474" viewBox="0 0 27.5 34.474">
  <path id="Pfad_69" data-name="Pfad 69" d="M17.75,20.961a2.569,2.569,0,0,0-1.719,4.5v2.4a1.719,1.719,0,1,0,3.438,0v-2.4a2.569,2.569,0,0,0-1.719-4.5Zm8.594-6.9H12.594V10.618a5.154,5.154,0,0,1,8.8-3.672,5.313,5.313,0,0,1,1.341,2.379,1.722,1.722,0,1,0,3.334-.862,8.78,8.78,0,0,0-2.252-3.947,8.591,8.591,0,0,0-14.661,6.1v3.448A5.164,5.164,0,0,0,4,19.237V31.3a5.164,5.164,0,0,0,5.156,5.171H26.344A5.164,5.164,0,0,0,31.5,31.3V19.237A5.164,5.164,0,0,0,26.344,14.066ZM28.063,31.3a1.721,1.721,0,0,1-1.719,1.724H9.156A1.721,1.721,0,0,1,7.438,31.3V19.237a1.721,1.721,0,0,1,1.719-1.724H26.344a1.721,1.721,0,0,1,1.719,1.724Z" transform="translate(-4 -2.001)" fill="#fff"/>
</svg>
