<svg xmlns="http://www.w3.org/2000/svg" width="49.423" height="52.717" viewBox="0 0 49.423 52.717">
  <g id="icon" transform="translate(-9.289 -9.129)">
    <path id="Pfad_47" data-name="Pfad 47" d="M10.936,33a1.647,1.647,0,0,0-1.647,1.647v10.1a1.647,1.647,0,0,0,1.647,1.647H57.064a1.647,1.647,0,0,0,1.647-1.647v-10.1a1.647,1.647,0,0,0-3.295,0V43.1H12.584V34.643A1.647,1.647,0,0,0,10.936,33Z" transform="translate(0 15.452)" fill="#f98f61"/>
    <path id="Pfad_48" data-name="Pfad 48" d="M30.171,51.743A1.647,1.647,0,0,0,31.818,50.1V14.659l10.45,10.094a1.647,1.647,0,0,0,2.288-2.369L31.339,9.615l0,0-.021-.02a1.5,1.5,0,0,0-.2-.128,1.319,1.319,0,0,0-.911-.328c-.012,0-.023-.007-.035-.007s-.023.007-.035.007a1.649,1.649,0,0,0-.588.119,1.71,1.71,0,0,0-.323.208,1.7,1.7,0,0,0-.2.13l-.02.018,0,0L15.787,22.382a1.647,1.647,0,0,0,2.288,2.369l10.45-10.094V50.094a1.644,1.644,0,0,0,1.646,1.649Z" transform="translate(3.902)" fill="#f98f61"/>
  </g>
</svg>
